<svg class="svg-icon" style="width: 1em; height: 1em;vertical-align: middle;fill: currentColor;overflow: hidden;" viewBox="0 0 1024 1024" version="1.1" xmlns="http://www.w3.org/2000/svg"><path d="M752.2 502.7c13.2-29.2 1.7-64.5-27.6-79.8l-47.8-27.3c-30.1-15.8-67.3-4.1-83.1 26L558.9 488c-3.9 7.4-13.1 10-20.3 5.9L446.3 440c-18.2-10.5-41.4-5.6-53.7 11.5L244 658.4c-3.8 5.3 0.1 12.7 6.6 12.6l34.6-0.7c42.5-0.9 82.6-19.3 110.9-51l10.2-11.4c7.3-8.2 19.2-10.3 28.9-5.2L550.3 663c34 17.8 76 6.6 96.6-25.8l98.2-123c2.8-3.7 5.2-7.5 7.1-11.5z" fill="#FF931E" /><path d="M566.5 657c-12.9 0-26.1-3.1-38.3-9.5l-115.1-60.3c-6.4-3.3-14.2-1.9-19 3.4L383.9 602c-29.7 33.2-72.3 52.8-116.9 53.7l-34.6 0.7c-6.1 0.2-11.8-3.2-14.6-8.6-2.9-5.5-2.4-11.9 1.2-16.9L367.6 424c14.8-20.6 42.5-26.5 64.4-13.8l92.3 53.9-8.3 14.2-92.3-53.9c-14.6-8.5-33-4.5-42.9 9.2L232.6 640.1l34.1-0.7c40-0.8 78.3-18.4 105-48.2l10.2-11.4c9.8-11 25.8-13.9 38.8-7l115.1 60.3c30.5 16 67.4 6.1 85.9-22.9l0.5-0.7 98.1-122.9c2.6-3.5 4.5-6.7 5.9-9.8 11.6-25.7 1.1-56.1-23.9-69.2l-0.3-0.1-47.7-27.3c-26-13.6-58.3-3.4-71.9 22.6l-29.9 54.8-14.4-7.9 29.8-54.6c17.8-34 60-47.2 94.1-29.3l0.3 0.1 47.7 27.3c32.6 17.2 46.3 56.8 31.1 90.4-1.9 4.2-4.5 8.4-7.8 12.9l-0.2 0.2-97.9 122.6c-15.6 24.3-41.7 37.7-68.7 37.7z" fill="" /><path d="M468.951 451.071l8.273-14.161 92.308 53.92-8.272 14.162zM675.6 513.5l-13-10 23.3-30.1c0.8-1.1 1.5-2.1 1.9-3.1 3.8-8.4 0.4-18.3-7.8-22.6l7.6-14.5c15.9 8.3 22.5 27.6 15.2 43.9-0.9 2.1-2.2 4.1-3.8 6.3l-23.4 30.1zM631.452 542.621l18.44-22.639 12.715 10.357-18.44 22.639zM600.375 583.97l18.48-24.64 13.12 9.84-18.48 24.64z" fill="" /><path d="M805.4 310.6h-11.6c-7.2 0-13.1-5.9-13.1-13.1v-11.6c0-1.4-1.2-2.6-2.6-2.6h-7.8c-1.4 0-2.6 1.2-2.6 2.6v11.6c0 7.2-5.9 13.1-13.1 13.1H743c-1.4 0-2.6 1.2-2.6 2.6v7.8c0 1.4 1.2 2.6 2.6 2.6h11.6c7.2 0 13.1 5.9 13.1 13.1v11.6c0 1.4 1.2 2.6 2.6 2.6h7.8c1.4 0 2.6-1.2 2.6-2.6v-11.6c0-7.2 5.9-13.1 13.1-13.1h11.6c1.4 0 2.6-1.2 2.6-2.6v-7.8c0-1.4-1.1-2.6-2.6-2.6z" fill="#050505" /><path d="M262.6 443h-7.7c-4.8 0-8.7-3.9-8.7-8.7v-7.7c0-1-0.8-1.7-1.7-1.7h-5.2c-1 0-1.7 0.8-1.7 1.7v7.7c0 4.8-3.9 8.7-8.7 8.7h-7.7c-1 0-1.7 0.8-1.7 1.7v5.2c0 1 0.8 1.7 1.7 1.7h7.7c4.8 0 8.7 3.9 8.7 8.7v7.7c0 1 0.8 1.7 1.7 1.7h5.2c1 0 1.7-0.8 1.7-1.7v-7.7c0-4.8 3.9-8.7 8.7-8.7h7.7c1 0 1.7-0.8 1.7-1.7v-5.2c0.1-0.9-0.7-1.7-1.7-1.7z" fill="#050505" /><path d="M697.2 705.9c-10.2 0-18.5-8.3-18.5-18.5s8.3-18.5 18.5-18.5 18.5 8.3 18.5 18.5-8.3 18.5-18.5 18.5z m0-28.7c-5.7 0-10.3 4.6-10.3 10.3s4.6 10.3 10.3 10.3 10.3-4.6 10.3-10.3-4.6-10.3-10.3-10.3z" fill="#050505" /><path d="M423.4 284.3m-11.3 0a11.3 11.3 0 1 0 22.6 0 11.3 11.3 0 1 0-22.6 0Z" fill="#050505" /><path d="M419.3 733.6m-17.4 0a17.4 17.4 0 1 0 34.8 0 17.4 17.4 0 1 0-34.8 0Z" fill="#050505" /></svg>